<svg xmlns="http://www.w3.org/2000/svg" width="94.214" height="75.224" viewBox="0 0 94.214 75.224">
  <path id="XMLID_412_" d="M93.675,123.682l-2.923-2.923v-5.33a1.841,1.841,0,0,0-.539-1.3l-5.442-5.442v-4.563a1.841,1.841,0,0,0-.539-1.3l-2.315-2.315a6.88,6.88,0,0,0,2.821-11.436l-6.314-6.314a1.84,1.84,0,0,0-2.6,2.6l6.314,6.314a3.2,3.2,0,0,1-4.473,4.579L56.383,74.972a16.122,16.122,0,0,1,7.236.632,1.84,1.84,0,1,0,1.144-3.5,19.837,19.837,0,0,0-10.433-.5L39.111,56.391a1.841,1.841,0,0,0-1.584-.517,9.959,9.959,0,0,1-8.542-2.789l-.946-.946a1.84,1.84,0,0,0-2.6,0l-5.908,5.908a1.84,1.84,0,0,0,0,2.6l.946.946a9.956,9.956,0,0,1,2.789,8.542,1.841,1.841,0,0,0,.517,1.584l7.906,7.906L18.344,92.2A13.723,13.723,0,0,1,8.9,95.951H1.84a1.84,1.84,0,0,0,0,3.68H8.9a17.39,17.39,0,0,0,11.971-4.752L34.291,82.23l3.257,3.257L36.523,88.75a7.325,7.325,0,0,0,9.241,9.165l11.4-3.682a3.9,3.9,0,0,1,4.581,1.818l.067.119a3.733,3.733,0,0,1-1.893,5.3c-3.176,1.245-6.992,2.741-9.777,3.829a11.535,11.535,0,0,0-6.467,6.522A17.655,17.655,0,0,1,27.395,122.95H1.84a1.84,1.84,0,0,0,0,3.68H27.4a21,21,0,0,0,11.889-3.691,21.245,21.245,0,0,0,7.806-9.766,7.883,7.883,0,0,1,3.978-4.273l7.1,7.1a6.883,6.883,0,0,0,9.733,0,6.942,6.942,0,0,0,.676-.786l1.63,1.63a1.841,1.841,0,0,0,1.3.539h4.563l5.442,5.442a1.841,1.841,0,0,0,1.3.539h5.33l2.923,2.923a1.84,1.84,0,0,0,2.6-2.6ZM67.594,109.019l-4.886-4.886a7.41,7.41,0,0,0,3.047-7.9l3.338-3.338,7.316,7.311ZM54.468,91.235l-3.521,1.137-7-7,8.813-8.813,8.19,8.19ZM50.817,73.3,40.692,83.427,27.685,70.419,37.81,60.294ZM23.426,59.354l3.319-3.319a13.645,13.645,0,0,0,6.728,3.392l-6.655,6.655A13.648,13.648,0,0,0,23.426,59.354ZM44.633,94.412a3.645,3.645,0,0,1-4.6-4.56l.761-2.425,6.217,6.217Zm15.649-3.785,3.273-3.273,2.936,2.936-2.553,2.553A7.623,7.623,0,0,0,60.282,90.627Zm2.757,23.706a3.182,3.182,0,0,1-2.265-.938l-5.969-5.97,4.3-1.686,6.8,6.8a3.2,3.2,0,0,1-2.874,1.79Zm7.157-2.712,8.815-8.815,2.079,2.079v4L76.275,113.7h-4Zm9.344,4.019,3.49-3.49,4.041,4.041v3.49h-3.49Z" transform="translate(0 -51.6)" fill="#f23005"/>
</svg>
